<?xml version="1.0" encoding="UTF-8" standalone="no"?>
<!DOCTYPE svg PUBLIC "-//W3C//DTD SVG 1.1//EN" "http://www.w3.org/Graphics/SVG/1.1/DTD/svg11.dtd">
<svg xmlns="http://www.w3.org/2000/svg" version="1.1" viewBox="0 0 659 723">
<g stroke-width="2.00" fill="none" stroke-linecap="butt">
<path stroke="#49464b" vector-effect="non-scaling-stroke" d="
  M 219.96 252.00
  Q 221.74 247.50 219.00 251.96"
/>
<path stroke="#49464b" vector-effect="non-scaling-stroke" d="
  M 443.75 251.96
  Q 443.59 250.81 442.70 250.23
  A 0.44 0.44 -64.4 0 0 442.05 250.46
  Q 441.64 251.66 443.00 252.04"
/>
</g>
<path fill="#000000" d="
  M 432.00 229.45
  Q 440.48 194.06 449.10 158.45
  C 449.91 155.11 451.28 154.47 453.91 152.65
  Q 541.53 91.83 629.15 31.02
  C 636.08 26.22 639.00 29.32 638.71 36.89
  Q 630.77 244.33 629.23 286.75
  C 628.85 297.21 628.70 307.82 627.90 317.99
  A 3.38 3.18 -22.3 0 1 626.99 319.99
  L 556.88 394.14
  Q 556.32 394.73 556.10 395.59
  Q 541.20 452.28 526.21 508.53
  Q 525.44 511.43 523.73 513.91
  Q 476.45 582.80 429.21 651.70
  Q 427.40 654.35 425.24 654.94
  Q 378.75 667.74 332.24 680.49
  A 3.50 2.93 -40.6 0 1 330.50 680.51
  L 236.74 654.79
  A 4.31 4.03 79.1 0 1 234.42 653.10
  Q 186.64 583.42 138.86 513.76
  Q 137.16 511.29 136.39 508.37
  Q 121.57 452.44 106.78 396.53
  Q 106.26 394.53 104.84 393.05
  Q 69.82 356.23 35.63 319.89
  A 3.76 3.75 22.4 0 1 34.61 317.45
  Q 29.27 176.60 23.92 35.75
  C 23.69 29.49 27.12 26.59 32.68 30.45
  Q 121.85 92.34 211.00 154.25
  C 213.14 155.73 213.24 157.13 213.94 160.03
  Q 222.31 194.67 230.67 229.33
  A 0.89 0.83 74.6 0 0 231.75 229.99
  L 329.42 198.39
  Q 331.36 197.76 333.33 198.40
  L 431.00 229.99
  A 0.78 0.77 16.1 0 0 432.00 229.45
  Z
  M 44.79 315.84
  C 66.83 339.43 89.13 362.80 111.49 386.22
  A 0.46 0.45 41.7 0 0 112.19 386.19
  L 222.78 238.77
  A 1.12 0.96 -36.5 0 0 222.98 237.90
  L 204.69 162.06
  A 2.40 2.17 12.7 0 0 203.76 160.74
  L 34.49 43.27
  Q 33.62 42.67 33.66 43.74
  L 43.92 313.75
  A 3.28 3.24 -67.9 0 0 44.79 315.84
  Z
  M 563.48 373.48
  Q 590.99 344.36 618.31 315.34
  A 1.45 1.11 -27.7 0 0 618.70 314.50
  L 628.95 44.00
  Q 629.00 42.71 627.94 43.44
  L 458.67 160.91
  A 1.67 1.21 -17.5 0 0 458.04 161.76
  L 439.71 237.74
  A 1.35 1.29 -57.6 0 0 439.93 238.85
  L 550.17 385.83
  A 0.85 0.84 48.9 0 0 551.45 385.92
  Q 557.47 379.84 563.48 373.48
  Z
  M 426.06 256.06
  Q 429.94 244.56 431.10 240.52
  A 0.57 0.53 16.9 0 0 430.71 239.86
  L 331.73 207.81
  A 1.69 0.89 -31.3 0 0 330.79 207.87
  L 232.25 239.76
  A 1.17 1.17 71.5 0 0 231.51 241.25
  L 294.74 428.29
  A 1.07 1.02 -8.6 0 0 295.75 429.00
  L 366.69 428.99
  A 1.39 1.34 -80.3 0 0 367.97 428.05
  Q 397.06 342.06 426.06 256.06
  Z
  M 256.16 559.61
  Q 258.30 560.59 261.22 561.84
  A 0.88 0.87 17.8 0 0 262.42 561.23
  L 290.74 432.50
  A 4.50 4.19 43.8 0 0 290.61 430.17
  L 228.24 245.71
  A 1.12 0.67 80.1 0 0 227.61 244.98
  Q 227.14 244.88 226.96 245.44
  Q 186.28 374.51 145.59 503.57
  C 144.65 506.55 146.66 509.01 149.44 510.30
  Q 202.78 535.00 256.16 559.61
  Z
  M 430.97 255.95
  Q 401.37 343.32 371.83 430.77
  A 2.01 1.39 -50.6 0 0 371.75 431.75
  L 400.28 561.49
  A 0.73 0.68 72.1 0 0 401.25 562.03
  Q 457.48 536.03 513.73 510.10
  C 517.14 508.53 517.74 505.62 516.63 502.11
  Q 476.41 374.56 436.08 246.63
  Q 434.99 243.17 433.95 246.65
  Q 432.76 250.68 430.97 255.95
  Z
  M 219.00 251.96
  C 217.73 251.95 124.40 377.58 115.24 389.79
  A 1.11 1.10 55.9 0 0 115.06 390.74
  Q 128.73 442.40 142.42 494.31
  C 142.72 495.43 143.51 495.13 143.78 494.26
  Q 181.88 373.38 219.95 252.48
  Q 220.02 252.25 219.96 252.00
  Q 221.74 247.50 219.00 251.96
  Z
  M 443.00 252.04
  Q 442.89 253.08 443.20 254.06
  Q 480.94 373.91 518.77 493.87
  Q 519.63 496.60 520.34 493.91
  L 547.43 391.44
  A 2.68 2.48 -57.3 0 0 547.03 389.20
  Q 496.72 322.15 446.00 254.50
  Q 444.46 252.46 443.75 251.96
  Q 443.59 250.81 442.70 250.23
  A 0.44 0.44 -64.4 0 0 442.05 250.46
  Q 441.64 251.66 443.00 252.04
  Z
  M 271.56 544.77
  L 391.00 544.76
  A 0.71 0.61 -5.4 0 0 391.72 544.01
  L 367.53 433.99
  A 0.63 0.52 82.5 0 0 367.00 433.50
  L 295.75 433.50
  A 0.60 0.55 6.0 0 0 295.17 433.93
  L 270.94 543.99
  A 0.64 0.64 -83.8 0 0 271.56 544.77
  Z
  M 337.70 609.03
  L 420.77 646.22
  A 0.78 0.69 -59.9 0 0 421.66 645.92
  L 509.43 517.93
  Q 510.26 516.73 508.94 517.33
  Q 457.55 540.97 406.17 564.80
  Q 399.46 567.92 393.18 571.94
  Q 365.29 589.78 337.55 607.32
  Q 336.03 608.28 337.70 609.03
  Z
  M 325.16 607.41
  Q 296.57 589.21 268.22 571.24
  Q 261.83 567.19 254.92 564.00
  Q 205.33 541.14 155.76 518.24
  C 154.90 517.84 153.25 517.97 154.18 519.32
  Q 197.71 582.79 241.09 646.08
  A 0.54 0.53 -29.1 0 0 241.75 646.26
  L 325.02 608.96
  Q 326.53 608.28 325.16 607.41
  Z
  M 266.69 564.81
  L 330.83 605.66
  A 0.86 0.75 43.0 0 0 331.71 605.69
  L 395.87 564.83
  A 0.90 0.72 -24.5 0 0 396.30 563.99
  L 393.21 550.26
  A 1.02 0.72 81.6 0 0 392.44 549.46
  L 270.25 549.45
  A 1.01 0.74 -81.7 0 0 269.47 550.24
  L 266.44 563.99
  A 0.83 0.60 -71.1 0 0 266.69 564.81
  Z
  M 411.55 646.96
  L 333.99 612.26
  A 0.47 0.35 -81.4 0 0 333.50 612.75
  L 333.50 669.75
  A 0.46 0.39 83.7 0 0 333.99 670.21
  L 411.49 648.95
  Q 414.29 648.18 411.55 646.96
  Z
  M 250.31 648.70
  C 276.26 655.84 302.20 662.90 328.09 669.95
  A 0.72 0.72 -82.4 0 0 329.00 669.25
  L 329.00 613.00
  A 0.52 0.50 -12.5 0 0 328.27 612.55
  L 250.20 647.47
  Q 248.54 648.22 250.31 648.70
  Z"
/>
<path fill="#918c95" d="
  M 219.96 252.00
  L 219.00 251.96
  Q 221.74 247.50 219.96 252.00
  Z"
/>
<path fill="#918c95" d="
  M 443.75 251.96
  L 443.00 252.04
  Q 441.64 251.66 442.05 250.46
  A 0.44 0.44 -64.4 0 1 442.70 250.23
  Q 443.59 250.81 443.75 251.96
  Z"
/>
</svg>
